<mxfile host="app.diagrams.net" agent="Mozilla/5.0 (Windows NT 10.0; Win64; x64) AppleWebKit/537.36 (KHTML, like Gecko) Chrome/133.0.0.0 Safari/537.36" version="26.0.14">
  <diagram name="Page-1" id="LuLJbXCC-MuU4jHSFNh8">
    <mxGraphModel dx="926" dy="457" grid="1" gridSize="10" guides="1" tooltips="1" connect="1" arrows="1" fold="1" page="1" pageScale="1" pageWidth="850" pageHeight="1100" math="0" shadow="0">
      <root>
        <mxCell id="0" />
        <mxCell id="1" parent="0" />
        <mxCell id="5NJ1pugXPzePn0BYfRPo-1" value="" style="shape=or;whiteSpace=wrap;html=1;" parent="1" vertex="1">
          <mxGeometry x="250" y="70" width="50" height="50" as="geometry" />
        </mxCell>
        <mxCell id="knz-vopeXLWIy0nvYE_B-57" style="edgeStyle=orthogonalEdgeStyle;rounded=0;orthogonalLoop=1;jettySize=auto;html=1;entryX=0;entryY=0.75;entryDx=0;entryDy=0;entryPerimeter=0;" edge="1" parent="1" source="5NJ1pugXPzePn0BYfRPo-34" target="5NJ1pugXPzePn0BYfRPo-3">
          <mxGeometry relative="1" as="geometry">
            <mxPoint x="90" y="390" as="sourcePoint" />
            <Array as="points">
              <mxPoint x="270" y="385" />
              <mxPoint x="270" y="192" />
            </Array>
          </mxGeometry>
        </mxCell>
        <mxCell id="5NJ1pugXPzePn0BYfRPo-3" value="" style="shape=or;whiteSpace=wrap;html=1;" parent="1" vertex="1">
          <mxGeometry x="450" y="155" width="50" height="50" as="geometry" />
        </mxCell>
        <mxCell id="5NJ1pugXPzePn0BYfRPo-4" value="" style="shape=or;whiteSpace=wrap;html=1;" parent="1" vertex="1">
          <mxGeometry x="350" y="98" width="50" height="50" as="geometry" />
        </mxCell>
        <mxCell id="5NJ1pugXPzePn0BYfRPo-7" value="" style="shape=xor;whiteSpace=wrap;html=1;" parent="1" vertex="1">
          <mxGeometry x="650" y="230" width="50" height="50" as="geometry" />
        </mxCell>
        <mxCell id="5NJ1pugXPzePn0BYfRPo-8" value="" style="shape=xor;whiteSpace=wrap;html=1;" parent="1" vertex="1">
          <mxGeometry x="560" y="195" width="40" height="50" as="geometry" />
        </mxCell>
        <mxCell id="5NJ1pugXPzePn0BYfRPo-31" value="n1" style="text;html=1;align=center;verticalAlign=middle;resizable=0;points=[];autosize=1;strokeColor=none;fillColor=none;" parent="1" vertex="1">
          <mxGeometry x="40" y="80" width="40" height="30" as="geometry" />
        </mxCell>
        <mxCell id="5NJ1pugXPzePn0BYfRPo-32" value="n2" style="text;html=1;align=center;verticalAlign=middle;resizable=0;points=[];autosize=1;strokeColor=none;fillColor=none;" parent="1" vertex="1">
          <mxGeometry x="40" y="168" width="40" height="30" as="geometry" />
        </mxCell>
        <mxCell id="5NJ1pugXPzePn0BYfRPo-33" value="n3" style="text;html=1;align=center;verticalAlign=middle;resizable=0;points=[];autosize=1;strokeColor=none;fillColor=none;" parent="1" vertex="1">
          <mxGeometry x="40" y="270" width="40" height="30" as="geometry" />
        </mxCell>
        <mxCell id="5NJ1pugXPzePn0BYfRPo-34" value="n4" style="text;html=1;align=center;verticalAlign=middle;resizable=0;points=[];autosize=1;strokeColor=none;fillColor=none;" parent="1" vertex="1">
          <mxGeometry x="40" y="370" width="40" height="30" as="geometry" />
        </mxCell>
        <mxCell id="5NJ1pugXPzePn0BYfRPo-77" value="" style="triangle;whiteSpace=wrap;html=1;" parent="1" vertex="1">
          <mxGeometry x="116.56" y="115" width="30" height="40" as="geometry" />
        </mxCell>
        <mxCell id="5NJ1pugXPzePn0BYfRPo-78" value="" style="ellipse;whiteSpace=wrap;html=1;aspect=fixed;" parent="1" vertex="1">
          <mxGeometry x="146.56" y="130" width="10" height="10" as="geometry" />
        </mxCell>
        <mxCell id="5NJ1pugXPzePn0BYfRPo-79" value="" style="triangle;whiteSpace=wrap;html=1;" parent="1" vertex="1">
          <mxGeometry x="116.56" y="305" width="30" height="40" as="geometry" />
        </mxCell>
        <mxCell id="5NJ1pugXPzePn0BYfRPo-80" value="" style="ellipse;whiteSpace=wrap;html=1;aspect=fixed;" parent="1" vertex="1">
          <mxGeometry x="146.56" y="320" width="10" height="10" as="geometry" />
        </mxCell>
        <mxCell id="5NJ1pugXPzePn0BYfRPo-111" value="" style="shape=xor;whiteSpace=wrap;html=1;" parent="1" vertex="1">
          <mxGeometry x="770" y="250" width="50" height="50" as="geometry" />
        </mxCell>
        <mxCell id="knz-vopeXLWIy0nvYE_B-77" style="edgeStyle=orthogonalEdgeStyle;rounded=0;orthogonalLoop=1;jettySize=auto;html=1;exitX=0;exitY=0.75;exitDx=0;exitDy=0;exitPerimeter=0;entryX=0;entryY=0.75;entryDx=0;entryDy=0;entryPerimeter=0;" edge="1" parent="1" target="knz-vopeXLWIy0nvYE_B-18">
          <mxGeometry relative="1" as="geometry">
            <mxPoint x="300" y="420" as="sourcePoint" />
            <Array as="points">
              <mxPoint x="630" y="420" />
              <mxPoint x="630" y="186" />
            </Array>
          </mxGeometry>
        </mxCell>
        <mxCell id="knz-vopeXLWIy0nvYE_B-18" value="" style="shape=or;whiteSpace=wrap;html=1;" vertex="1" parent="1">
          <mxGeometry x="700" y="148" width="50" height="50" as="geometry" />
        </mxCell>
        <mxCell id="knz-vopeXLWIy0nvYE_B-73" style="edgeStyle=orthogonalEdgeStyle;rounded=0;orthogonalLoop=1;jettySize=auto;html=1;entryX=0;entryY=0.75;entryDx=0;entryDy=0;entryPerimeter=0;" edge="1" parent="1" target="knz-vopeXLWIy0nvYE_B-19">
          <mxGeometry relative="1" as="geometry">
            <mxPoint x="270" y="280" as="sourcePoint" />
          </mxGeometry>
        </mxCell>
        <mxCell id="knz-vopeXLWIy0nvYE_B-19" value="" style="shape=or;whiteSpace=wrap;html=1;" vertex="1" parent="1">
          <mxGeometry x="470" y="255" width="50" height="50" as="geometry" />
        </mxCell>
        <mxCell id="knz-vopeXLWIy0nvYE_B-33" style="edgeStyle=orthogonalEdgeStyle;rounded=0;orthogonalLoop=1;jettySize=auto;html=1;exitX=0;exitY=0.75;exitDx=0;exitDy=0;exitPerimeter=0;" edge="1" parent="1" source="knz-vopeXLWIy0nvYE_B-20">
          <mxGeometry relative="1" as="geometry">
            <mxPoint x="349.7777777777778" y="342.44444444444446" as="targetPoint" />
          </mxGeometry>
        </mxCell>
        <mxCell id="knz-vopeXLWIy0nvYE_B-66" style="edgeStyle=orthogonalEdgeStyle;rounded=0;orthogonalLoop=1;jettySize=auto;html=1;exitX=0;exitY=0.25;exitDx=0;exitDy=0;exitPerimeter=0;entryX=0;entryY=0.25;entryDx=0;entryDy=0;entryPerimeter=0;" edge="1" parent="1" target="knz-vopeXLWIy0nvYE_B-20">
          <mxGeometry relative="1" as="geometry">
            <mxPoint x="190" y="180" as="sourcePoint" />
            <Array as="points">
              <mxPoint x="190" y="318" />
            </Array>
          </mxGeometry>
        </mxCell>
        <mxCell id="knz-vopeXLWIy0nvYE_B-67" style="edgeStyle=orthogonalEdgeStyle;rounded=0;orthogonalLoop=1;jettySize=auto;html=1;exitX=0;exitY=0.75;exitDx=0;exitDy=0;exitPerimeter=0;entryX=0;entryY=0.75;entryDx=0;entryDy=0;entryPerimeter=0;" edge="1" parent="1" target="knz-vopeXLWIy0nvYE_B-20">
          <mxGeometry relative="1" as="geometry">
            <mxPoint x="220" y="290" as="sourcePoint" />
            <Array as="points">
              <mxPoint x="210" y="290" />
              <mxPoint x="210" y="342" />
            </Array>
          </mxGeometry>
        </mxCell>
        <mxCell id="knz-vopeXLWIy0nvYE_B-20" value="" style="shape=or;whiteSpace=wrap;html=1;" vertex="1" parent="1">
          <mxGeometry x="350" y="305" width="50" height="50" as="geometry" />
        </mxCell>
        <mxCell id="knz-vopeXLWIy0nvYE_B-59" style="edgeStyle=orthogonalEdgeStyle;rounded=0;orthogonalLoop=1;jettySize=auto;html=1;exitX=0;exitY=0.25;exitDx=0;exitDy=0;exitPerimeter=0;entryX=0;entryY=0.25;entryDx=0;entryDy=0;entryPerimeter=0;" edge="1" parent="1" target="knz-vopeXLWIy0nvYE_B-21">
          <mxGeometry relative="1" as="geometry">
            <mxPoint x="100" y="130" as="sourcePoint" />
            <Array as="points">
              <mxPoint x="90" y="130" />
              <mxPoint x="90" y="242" />
            </Array>
          </mxGeometry>
        </mxCell>
        <mxCell id="knz-vopeXLWIy0nvYE_B-60" style="edgeStyle=orthogonalEdgeStyle;rounded=0;orthogonalLoop=1;jettySize=auto;html=1;exitX=0;exitY=0.75;exitDx=0;exitDy=0;exitPerimeter=0;entryX=0;entryY=0.75;entryDx=0;entryDy=0;entryPerimeter=0;" edge="1" parent="1" target="knz-vopeXLWIy0nvYE_B-21">
          <mxGeometry relative="1" as="geometry">
            <mxPoint x="100" y="290" as="sourcePoint" />
          </mxGeometry>
        </mxCell>
        <mxCell id="knz-vopeXLWIy0nvYE_B-21" value="" style="shape=or;whiteSpace=wrap;html=1;" vertex="1" parent="1">
          <mxGeometry x="375" y="230" width="50" height="50" as="geometry" />
        </mxCell>
        <mxCell id="knz-vopeXLWIy0nvYE_B-31" value="" style="shape=or;whiteSpace=wrap;html=1;" vertex="1" parent="1">
          <mxGeometry x="440" y="355" width="50" height="50" as="geometry" />
        </mxCell>
        <mxCell id="knz-vopeXLWIy0nvYE_B-34" value="" style="ellipse;whiteSpace=wrap;html=1;aspect=fixed;" vertex="1" parent="1">
          <mxGeometry x="146.56" y="220" width="10" height="10" as="geometry" />
        </mxCell>
        <mxCell id="knz-vopeXLWIy0nvYE_B-35" value="" style="triangle;whiteSpace=wrap;html=1;" vertex="1" parent="1">
          <mxGeometry x="116.56" y="205" width="30" height="40" as="geometry" />
        </mxCell>
        <mxCell id="knz-vopeXLWIy0nvYE_B-74" style="edgeStyle=orthogonalEdgeStyle;rounded=0;orthogonalLoop=1;jettySize=auto;html=1;exitX=0;exitY=0.25;exitDx=0;exitDy=0;exitPerimeter=0;entryX=0;entryY=0.25;entryDx=0;entryDy=0;entryPerimeter=0;" edge="1" parent="1" target="knz-vopeXLWIy0nvYE_B-40">
          <mxGeometry relative="1" as="geometry">
            <mxPoint x="100" y="100" as="sourcePoint" />
          </mxGeometry>
        </mxCell>
        <mxCell id="knz-vopeXLWIy0nvYE_B-75" style="edgeStyle=orthogonalEdgeStyle;rounded=0;orthogonalLoop=1;jettySize=auto;html=1;exitX=0;exitY=0.75;exitDx=0;exitDy=0;exitPerimeter=0;entryX=0;entryY=0.75;entryDx=0;entryDy=0;entryPerimeter=0;" edge="1" parent="1" target="knz-vopeXLWIy0nvYE_B-40">
          <mxGeometry relative="1" as="geometry">
            <mxPoint x="220" y="135.63157894736844" as="sourcePoint" />
          </mxGeometry>
        </mxCell>
        <mxCell id="knz-vopeXLWIy0nvYE_B-40" value="" style="shape=or;whiteSpace=wrap;html=1;" vertex="1" parent="1">
          <mxGeometry x="580" y="98" width="50" height="50" as="geometry" />
        </mxCell>
        <mxCell id="knz-vopeXLWIy0nvYE_B-47" value="" style="triangle;whiteSpace=wrap;html=1;" vertex="1" parent="1">
          <mxGeometry x="116.56" y="420" width="30" height="40" as="geometry" />
        </mxCell>
        <mxCell id="knz-vopeXLWIy0nvYE_B-48" value="" style="ellipse;whiteSpace=wrap;html=1;aspect=fixed;" vertex="1" parent="1">
          <mxGeometry x="146.56" y="435" width="10" height="10" as="geometry" />
        </mxCell>
        <mxCell id="knz-vopeXLWIy0nvYE_B-49" value="circuit diagram of B" style="text;html=1;align=center;verticalAlign=middle;resizable=0;points=[];autosize=1;strokeColor=none;fillColor=none;" vertex="1" parent="1">
          <mxGeometry x="270" y="30" width="130" height="30" as="geometry" />
        </mxCell>
        <mxCell id="knz-vopeXLWIy0nvYE_B-50" style="edgeStyle=orthogonalEdgeStyle;rounded=0;orthogonalLoop=1;jettySize=auto;html=1;exitX=0.955;exitY=0.626;exitDx=0;exitDy=0;entryX=0;entryY=0.5;entryDx=0;entryDy=0;exitPerimeter=0;" edge="1" parent="1" source="5NJ1pugXPzePn0BYfRPo-31" target="5NJ1pugXPzePn0BYfRPo-77">
          <mxGeometry relative="1" as="geometry" />
        </mxCell>
        <mxCell id="knz-vopeXLWIy0nvYE_B-51" style="edgeStyle=orthogonalEdgeStyle;rounded=0;orthogonalLoop=1;jettySize=auto;html=1;exitX=1;exitY=0;exitDx=0;exitDy=0;entryX=0;entryY=0.25;entryDx=0;entryDy=0;entryPerimeter=0;" edge="1" parent="1" source="5NJ1pugXPzePn0BYfRPo-78" target="5NJ1pugXPzePn0BYfRPo-1">
          <mxGeometry relative="1" as="geometry" />
        </mxCell>
        <mxCell id="knz-vopeXLWIy0nvYE_B-52" style="edgeStyle=orthogonalEdgeStyle;rounded=0;orthogonalLoop=1;jettySize=auto;html=1;exitX=1;exitY=0.4;exitDx=0;exitDy=0;exitPerimeter=0;entryX=0;entryY=0.75;entryDx=0;entryDy=0;entryPerimeter=0;" edge="1" parent="1" source="5NJ1pugXPzePn0BYfRPo-32" target="5NJ1pugXPzePn0BYfRPo-1">
          <mxGeometry relative="1" as="geometry">
            <Array as="points">
              <mxPoint x="220" y="180" />
              <mxPoint x="220" y="108" />
            </Array>
          </mxGeometry>
        </mxCell>
        <mxCell id="knz-vopeXLWIy0nvYE_B-53" style="edgeStyle=orthogonalEdgeStyle;rounded=0;orthogonalLoop=1;jettySize=auto;html=1;exitX=1.008;exitY=0.679;exitDx=0;exitDy=0;entryX=0;entryY=0.5;entryDx=0;entryDy=0;exitPerimeter=0;" edge="1" parent="1" source="5NJ1pugXPzePn0BYfRPo-33" target="5NJ1pugXPzePn0BYfRPo-79">
          <mxGeometry relative="1" as="geometry" />
        </mxCell>
        <mxCell id="knz-vopeXLWIy0nvYE_B-54" style="edgeStyle=orthogonalEdgeStyle;rounded=0;orthogonalLoop=1;jettySize=auto;html=1;exitX=1;exitY=0.5;exitDx=0;exitDy=0;entryX=0;entryY=0.75;entryDx=0;entryDy=0;entryPerimeter=0;" edge="1" parent="1" source="5NJ1pugXPzePn0BYfRPo-80" target="5NJ1pugXPzePn0BYfRPo-4">
          <mxGeometry relative="1" as="geometry" />
        </mxCell>
        <mxCell id="knz-vopeXLWIy0nvYE_B-55" style="edgeStyle=orthogonalEdgeStyle;rounded=0;orthogonalLoop=1;jettySize=auto;html=1;exitX=1;exitY=0.5;exitDx=0;exitDy=0;exitPerimeter=0;entryX=0;entryY=0.25;entryDx=0;entryDy=0;entryPerimeter=0;" edge="1" parent="1" source="5NJ1pugXPzePn0BYfRPo-1" target="5NJ1pugXPzePn0BYfRPo-4">
          <mxGeometry relative="1" as="geometry" />
        </mxCell>
        <mxCell id="knz-vopeXLWIy0nvYE_B-56" style="edgeStyle=orthogonalEdgeStyle;rounded=0;orthogonalLoop=1;jettySize=auto;html=1;exitX=1;exitY=0.5;exitDx=0;exitDy=0;exitPerimeter=0;entryX=0;entryY=0.25;entryDx=0;entryDy=0;entryPerimeter=0;" edge="1" parent="1" source="5NJ1pugXPzePn0BYfRPo-4" target="5NJ1pugXPzePn0BYfRPo-3">
          <mxGeometry relative="1" as="geometry" />
        </mxCell>
        <mxCell id="knz-vopeXLWIy0nvYE_B-58" style="edgeStyle=orthogonalEdgeStyle;rounded=0;orthogonalLoop=1;jettySize=auto;html=1;exitX=1;exitY=0.5;exitDx=0;exitDy=0;exitPerimeter=0;entryX=0.175;entryY=0.25;entryDx=0;entryDy=0;entryPerimeter=0;" edge="1" parent="1" source="5NJ1pugXPzePn0BYfRPo-3" target="5NJ1pugXPzePn0BYfRPo-8">
          <mxGeometry relative="1" as="geometry" />
        </mxCell>
        <mxCell id="knz-vopeXLWIy0nvYE_B-62" style="edgeStyle=orthogonalEdgeStyle;rounded=0;orthogonalLoop=1;jettySize=auto;html=1;exitX=1;exitY=0.5;exitDx=0;exitDy=0;exitPerimeter=0;entryX=0;entryY=0.25;entryDx=0;entryDy=0;entryPerimeter=0;" edge="1" parent="1" source="knz-vopeXLWIy0nvYE_B-21" target="knz-vopeXLWIy0nvYE_B-19">
          <mxGeometry relative="1" as="geometry" />
        </mxCell>
        <mxCell id="knz-vopeXLWIy0nvYE_B-65" style="edgeStyle=orthogonalEdgeStyle;rounded=0;orthogonalLoop=1;jettySize=auto;html=1;exitX=1;exitY=0.5;exitDx=0;exitDy=0;exitPerimeter=0;entryX=0.175;entryY=0.75;entryDx=0;entryDy=0;entryPerimeter=0;" edge="1" parent="1" source="knz-vopeXLWIy0nvYE_B-19" target="5NJ1pugXPzePn0BYfRPo-8">
          <mxGeometry relative="1" as="geometry">
            <Array as="points">
              <mxPoint x="540" y="280" />
              <mxPoint x="540" y="232" />
            </Array>
          </mxGeometry>
        </mxCell>
        <mxCell id="knz-vopeXLWIy0nvYE_B-68" style="edgeStyle=orthogonalEdgeStyle;rounded=0;orthogonalLoop=1;jettySize=auto;html=1;exitX=1;exitY=0.5;exitDx=0;exitDy=0;exitPerimeter=0;entryX=0;entryY=0.25;entryDx=0;entryDy=0;entryPerimeter=0;" edge="1" parent="1" source="knz-vopeXLWIy0nvYE_B-20" target="knz-vopeXLWIy0nvYE_B-31">
          <mxGeometry relative="1" as="geometry" />
        </mxCell>
        <mxCell id="knz-vopeXLWIy0nvYE_B-69" style="edgeStyle=orthogonalEdgeStyle;rounded=0;orthogonalLoop=1;jettySize=auto;html=1;exitX=0.955;exitY=0.539;exitDx=0;exitDy=0;entryX=0;entryY=0.5;entryDx=0;entryDy=0;exitPerimeter=0;" edge="1" parent="1" source="5NJ1pugXPzePn0BYfRPo-34" target="knz-vopeXLWIy0nvYE_B-47">
          <mxGeometry relative="1" as="geometry">
            <mxPoint x="77" y="390" as="sourcePoint" />
            <Array as="points">
              <mxPoint x="77" y="386" />
              <mxPoint x="77" y="440" />
            </Array>
          </mxGeometry>
        </mxCell>
        <mxCell id="knz-vopeXLWIy0nvYE_B-70" style="edgeStyle=orthogonalEdgeStyle;rounded=0;orthogonalLoop=1;jettySize=auto;html=1;exitX=1;exitY=0.5;exitDx=0;exitDy=0;entryX=0;entryY=0.75;entryDx=0;entryDy=0;entryPerimeter=0;" edge="1" parent="1" source="knz-vopeXLWIy0nvYE_B-48" target="knz-vopeXLWIy0nvYE_B-31">
          <mxGeometry relative="1" as="geometry" />
        </mxCell>
        <mxCell id="knz-vopeXLWIy0nvYE_B-71" style="edgeStyle=orthogonalEdgeStyle;rounded=0;orthogonalLoop=1;jettySize=auto;html=1;exitX=1;exitY=0.5;exitDx=0;exitDy=0;exitPerimeter=0;entryX=0.175;entryY=0.25;entryDx=0;entryDy=0;entryPerimeter=0;" edge="1" parent="1" source="5NJ1pugXPzePn0BYfRPo-8" target="5NJ1pugXPzePn0BYfRPo-7">
          <mxGeometry relative="1" as="geometry" />
        </mxCell>
        <mxCell id="knz-vopeXLWIy0nvYE_B-72" style="edgeStyle=orthogonalEdgeStyle;rounded=0;orthogonalLoop=1;jettySize=auto;html=1;exitX=1;exitY=0.5;exitDx=0;exitDy=0;exitPerimeter=0;entryX=0.175;entryY=0.75;entryDx=0;entryDy=0;entryPerimeter=0;" edge="1" parent="1" source="knz-vopeXLWIy0nvYE_B-31" target="5NJ1pugXPzePn0BYfRPo-7">
          <mxGeometry relative="1" as="geometry">
            <Array as="points">
              <mxPoint x="560" y="380" />
              <mxPoint x="560" y="268" />
            </Array>
          </mxGeometry>
        </mxCell>
        <mxCell id="knz-vopeXLWIy0nvYE_B-76" style="edgeStyle=orthogonalEdgeStyle;rounded=0;orthogonalLoop=1;jettySize=auto;html=1;exitX=1;exitY=0.5;exitDx=0;exitDy=0;exitPerimeter=0;entryX=0;entryY=0.25;entryDx=0;entryDy=0;entryPerimeter=0;" edge="1" parent="1" source="knz-vopeXLWIy0nvYE_B-40" target="knz-vopeXLWIy0nvYE_B-18">
          <mxGeometry relative="1" as="geometry" />
        </mxCell>
        <mxCell id="knz-vopeXLWIy0nvYE_B-78" style="edgeStyle=orthogonalEdgeStyle;rounded=0;orthogonalLoop=1;jettySize=auto;html=1;exitX=1;exitY=0.5;exitDx=0;exitDy=0;exitPerimeter=0;entryX=0.175;entryY=0.25;entryDx=0;entryDy=0;entryPerimeter=0;" edge="1" parent="1" source="knz-vopeXLWIy0nvYE_B-18" target="5NJ1pugXPzePn0BYfRPo-111">
          <mxGeometry relative="1" as="geometry" />
        </mxCell>
        <mxCell id="knz-vopeXLWIy0nvYE_B-79" style="edgeStyle=orthogonalEdgeStyle;rounded=0;orthogonalLoop=1;jettySize=auto;html=1;exitX=1;exitY=0.5;exitDx=0;exitDy=0;exitPerimeter=0;entryX=0.175;entryY=0.75;entryDx=0;entryDy=0;entryPerimeter=0;" edge="1" parent="1" source="5NJ1pugXPzePn0BYfRPo-7" target="5NJ1pugXPzePn0BYfRPo-111">
          <mxGeometry relative="1" as="geometry" />
        </mxCell>
      </root>
    </mxGraphModel>
  </diagram>
</mxfile>
